# xmcd
#
# Track frame offsets:
#	150
#	11135
#	21240
#	33365
#	46000
#	56740
#	66712
#	78030
#	88490
#	99107
#	108795
#	118590
#	130212
#	141925
#	155012
#	166835
#	178565
#	194882
#
# Disc length: 2758 seconds
# Revision: 0
# Processed by: cddbd v1.5.2PL0 Copyright (c) Steve Scherf et al.
# Submitted via: dBpowerAMP V12.0
#
DISCID=f60ac412
DTITLE=Drifters, The - Save The Last Dance For me - Anthology 3
DYEAR=1996
DGENRE=R&B
TTITLE0=Dance With me
TTITLE1=Baltimore
TTITLE2=Hey Senorita
TTITLE3=Lonely Winds
TTITLE4=Oh my Love
TTITLE5=There Goes my Baby
TTITLE6=This Magic Moment
TTITLE7=(if You Cry) True Love, True Love
TTITLE8=Sometimes I Wonder
TTITLE9=I Count The Tears
TTITLE10=I Feel Good All Over
TTITLE11=Save The Last Dance For me
TTITLE12=Nobody But me
TTITLE13=Room Full of Tears
TTITLE14=Sweets For my Sweet
TTITLE15=When my Little Girl is Smiling
TTITLE16=Night Shift
TTITLE17=Lonely Winds (2)
EXTD=
EXTT0=
EXTT1=
EXTT2=
EXTT3=
EXTT4=
EXTT5=
EXTT6=
EXTT7=
EXTT8=
EXTT9=
EXTT10=
EXTT11=
EXTT12=
EXTT13=
EXTT14=
EXTT15=
EXTT16=
EXTT17=
PLAYORDER=
